<?xml version="1.0" encoding="utf-8"?>
<!-- Generator: Adobe Illustrator 26.0.1, SVG Export Plug-In . SVG Version: 6.00 Build 0)  -->
<svg version="1.1" id="Camada_1" xmlns="http://www.w3.org/2000/svg" xmlns:xlink="http://www.w3.org/1999/xlink" x="0px" y="0px"
	 viewBox="0 0 300.8 122" style="enable-background:new 0 0 300.8 122;" xml:space="preserve">
<style type="text/css">
	.st0{fill:#FFFFFF;}
	.st1{clip-path:url(#SVGID_00000047781273279098681230000013996714345903613080_);}
	.st2{fill:url(#SVGID_00000106118275930918082680000001927085063201454512_);}
	.st3{clip-path:url(#SVGID_00000079446267357114969390000007232093234748407171_);}
	.st4{fill:url(#SVGID_00000114039572810099210540000002137148952715448210_);}
	.st5{fill:#CC0D48;}
	.st6{fill:#FE3A4F;}
</style>
<g id="Camada_2_00000054268123267645753660000004508146443406216382_">
	<g id="Layer_1">
		<path class="st0" d="M195.6,44.2H190c-0.5,0-0.9,0.4-0.9,0.9v23.1c0,4.5-2.9,7.2-7.6,7.2s-7.6-2.7-7.6-7.2V45
			c0-0.5-0.4-0.9-0.9-0.9c0,0,0,0,0,0h-5.6c-0.5,0-0.9,0.4-0.9,0.9v23.2c0,8.3,6,13.9,15,13.9s14.9-5.6,14.9-13.9V45
			C196.5,44.6,196.1,44.2,195.6,44.2C195.6,44.1,195.6,44.1,195.6,44.2z"/>
		<path class="st0" d="M232.9,44.2h-5.7c-0.5,0-0.9,0.4-0.9,0.9c0,0,0,0,0,0v21c0,0.5-0.4,0.9-0.9,0.9c-0.3,0-0.6-0.2-0.8-0.4
			c-0.1-0.3-0.3-0.5-0.4-0.7l-13.9-21.3c-0.2-0.3-0.4-0.4-0.7-0.4h-6c-0.5,0-0.9,0.4-0.9,0.9v36.3c0,0.5,0.4,0.9,0.9,0.9h5.8
			c0.5,0,0.9-0.4,0.9-0.9c0-3.3-0.1-15.1-0.1-21.2c0-0.5,0.4-0.9,0.9-0.9c0.3,0,0.6,0.2,0.8,0.4c0.2,0.3,0.4,0.7,0.6,0.9l14,21.2
			c0.2,0.2,0.4,0.4,0.8,0.4h6c0.5,0,0.9-0.4,0.9-0.9V45c0-0.5-0.4-0.9-0.9-0.9C233,44.1,232.9,44.1,232.9,44.2z"/>
		<path class="st0" d="M270,44.2h-5.7c-0.5,0-0.9,0.4-0.9,0.9c0,0,0,0,0,0v21c0,0.5-0.4,0.9-0.9,0.9c-0.3,0-0.6-0.2-0.8-0.4
			c-0.1-0.3-0.3-0.5-0.5-0.7l-13.9-21.3c-0.2-0.2-0.4-0.4-0.7-0.4h-6.1c-0.5,0-0.9,0.4-0.9,0.9c0,0,0,0,0,0v36.3
			c0,0.5,0.4,0.9,0.9,0.9c0,0,0,0,0,0h5.8c0.5,0,0.9-0.4,0.9-0.9c0,0,0,0,0,0c0-3.3-0.1-15.1-0.1-21.2c0-0.5,0.4-0.9,0.9-0.9
			c0.3,0,0.6,0.2,0.8,0.4c0.2,0.3,0.4,0.7,0.6,0.9l14,21.2c0.2,0.2,0.4,0.4,0.7,0.4h6c0.5,0,0.9-0.4,0.9-0.9c0,0,0,0,0,0V45
			C271,44.5,270.6,44.1,270,44.2C270,44.1,270,44.1,270,44.2z"/>
		<path class="st0" d="M299.9,75.6h-14.6c-0.5,0-0.9-0.4-0.9-0.9c0,0,0,0,0,0v-7.4c0-0.5,0.4-0.9,0.9-0.9l0,0H296
			c0.5,0,0.9-0.4,0.9-0.9c0,0,0,0,0,0v-4.8c0-0.5-0.4-0.9-0.9-0.9c0,0,0,0,0,0h-10.7c-0.5,0-0.9-0.4-0.9-0.9c0,0,0,0,0,0v-7.2
			c0-0.5,0.4-0.9,0.9-0.9l0,0H299c0.5,0,0.9-0.4,0.9-0.9c0,0,0,0,0,0V45c0-0.5-0.4-0.9-0.9-0.9c0,0,0,0,0,0h-21.3
			c-0.5,0-0.9,0.4-0.9,0.9c0,0,0,0,0,0v36.3c0,0.5,0.4,0.9,0.9,0.9l0,0h22.2c0.5,0,0.9-0.4,0.9-0.9c0,0,0,0,0,0v-4.8
			C300.8,76,300.4,75.6,299.9,75.6C299.9,75.6,299.9,75.6,299.9,75.6z"/>
		<path class="st0" d="M151,60c-3.4-1.4-6.4-2.6-6.4-5.1c0-2.3,2.1-3.9,5-3.9c2.6,0.1,5.1,1,7.2,2.5c0.4,0.3,1,0.2,1.2-0.2
			c0,0,0,0,0-0.1l2.4-4.3c0.2-0.4,0.1-0.8-0.2-1.1c-3-2.4-6.8-3.7-10.6-3.6c-7.1,0-12.5,4.7-12.5,10.8c0,6.5,5.8,9,10.4,11
			c3.5,1.5,6.6,2.8,6.6,5.4c0,2.9-2.6,4-4.8,4c-3.6,0-6.8-2.1-8.2-3.2c-0.4-0.3-0.9-0.2-1.2,0.1c0,0-0.1,0.1-0.1,0.1l-2.4,4.3
			c-0.2,0.4-0.1,0.8,0.2,1.1c3.3,2.7,7.4,4.2,11.7,4.2c8.4,0,12.3-5.7,12.3-10.9C161.6,64.4,155.7,62,151,60z"/>
		<g>
			<defs>
				<path id="SVGID_1_" d="M96.5,47.9c7.2,19.6-2.8,41.4-22.5,48.7c-19.6,7.2-41.4-2.8-48.7-22.5s2.8-41.4,22.5-48.7
					c10.5-3.9,22.1-2.9,31.8,2.6L90.8,7.8c-29.4-16.5-66.6-6-83,23.4s-6,66.6,23.4,83s66.6,6,83-23.4c11.8-21.1,10-47.1-4.4-66.4
					L96.5,47.9z"/>
			</defs>
			<clipPath id="SVGID_00000042728663496769117790000008316085194563878816_">
				<use xlink:href="#SVGID_1_"  style="overflow:visible;"/>
			</clipPath>
			<g style="clip-path:url(#SVGID_00000042728663496769117790000008316085194563878816_);">
				
					<linearGradient id="SVGID_00000121988358750123830690000001895050875779219629_" gradientUnits="userSpaceOnUse" x1="25.9787" y1="25.6812" x2="77.0287" y2="79.9012" gradientTransform="matrix(1 0 0 -1 0 124)">
					<stop  offset="0" style="stop-color:#FDE536"/>
					<stop  offset="0.22" style="stop-color:#FFAD21"/>
					<stop  offset="1" style="stop-color:#FE3A4F"/>
				</linearGradient>
				<rect style="fill:url(#SVGID_00000121988358750123830690000001895050875779219629_);" width="122.2" height="122"/>
			</g>
		</g>
		<g>
			<defs>
				<path id="SVGID_00000165198636574868710720000016997117206933117618_" d="M119.1-0.2H98.8c-1.1,0-2.1,0.6-2.7,1.6l-25,45.1
					c-1.6,2.9-5.3,4-8.2,2.4c0,0-0.1,0-0.1-0.1l-4.5-2.6c-6.4-3.7-14.6-1.5-18.3,4.8L27.1,74v0.1c9.6-4.8,20.7-5.4,30.7-1.6l0,0
					c0.5,0.1,1,0.3,1.5,0.6l4.4,2.5c6.4,3.7,14.6,1.5,18.3-4.9c0-0.1,0.1-0.2,0.1-0.2l38.5-68.2c0.5-0.8,0.2-1.8-0.5-2.3
					C119.7-0.1,119.4-0.2,119.1-0.2z"/>
			</defs>
			<clipPath id="SVGID_00000124123751551595459580000004165135574602006927_">
				<use xlink:href="#SVGID_00000165198636574868710720000016997117206933117618_"  style="overflow:visible;"/>
			</clipPath>
			<g style="clip-path:url(#SVGID_00000124123751551595459580000004165135574602006927_);">
				
					<linearGradient id="SVGID_00000003801311305247695990000016887431317550933673_" gradientUnits="userSpaceOnUse" x1="25.9806" y1="25.6794" x2="93.9806" y2="97.9094" gradientTransform="matrix(1 0 0 -1 0 124)">
					<stop  offset="0" style="stop-color:#FDE536"/>
					<stop  offset="0.22" style="stop-color:#FFAD21"/>
					<stop  offset="1" style="stop-color:#FE3A4F"/>
				</linearGradient>
				<rect style="fill:url(#SVGID_00000003801311305247695990000016887431317550933673_);" width="122.2" height="122"/>
			</g>
		</g>
		<path class="st5" d="M12.2,100.1L0.9,119.9c-0.4,0.7-0.1,1.5,0.5,1.9c0.2,0.1,0.4,0.2,0.7,0.2h20.7c1.1,0,2.1-0.6,2.6-1.5l3.3-5.9
			c-4.4-2.6-8.4-5.8-12-9.4C15.1,103.6,13.6,101.9,12.2,100.1z"/>
		<path class="st6" d="M44.2,69.9c-6,0-11.8,1.4-17.1,4.1c2.8,7.3,7.9,13.5,14.6,17.7l9.3-16.4c1.4-2.4,4.2-3.6,6.8-2.9
			C53.5,70.8,48.9,69.9,44.2,69.9z"/>
		<path class="st5" d="M44.2,69.9c-1.2,0-2.3,0-3.4,0.2c-0.4,0-0.8,0.1-1.1,0.1c-0.5,0.1-1.1,0.1-1.6,0.2c-0.8,0.1-1.6,0.3-2.4,0.5
			c-3,0.7-5.8,1.7-8.6,3.1c0.1,0.4,0.3,0.7,0.5,1.1h0.1c8.3-4.2,17.8-5.1,26.7-2.5c1.1-0.4,2.3-0.4,3.5-0.1
			C53.5,70.8,48.9,70,44.2,69.9z"/>
	</g>
</g>
</svg>
